<svg width="50" height="50" viewBox="0 0 50 50" fill="none" xmlns="http://www.w3.org/2000/svg">
<path d="M46.8888 12.8706L46.8898 12.8697L46.8888 12.8704V11.8263C46.8888 9.84498 45.2677 8.22382 43.2863 8.22382L43.2852 8.22479L43.2831 8.22637L43.2863 8.22382H6.52224L6.53643 8.23537L6.52224 8.22479C4.54093 8.22479 2.91968 9.84595 2.91968 11.8273V36.437C2.91968 38.4183 4.54084 40.0393 6.52224 40.0393H7.80469H41.8945V40.0384C45.6736 39.9945 46.8087 39.0594 46.8946 36.4398L46.8888 12.8706ZM40.6022 9.10565L24.846 20.7116L9.19216 9.10565H40.6022ZM8.6956 18.1235L23.2907 28.1768L23.3053 28.187L8.68723 38.3516L8.6956 18.1235ZM9.07285 39.1575L24.0773 28.7242L24.3406 28.9073C24.4919 29.0126 24.6681 29.0653 24.8443 29.0653C25.0191 29.0653 25.6179 28.7214 25.6179 28.7214L40.6265 39.1575H9.07285ZM41.0029 38.3453L26.3938 28.187L34.5414 22.5749L41.0029 18.1241V38.3453Z" fill="#043051"/>
</svg>
