<svg width="90" height="68" viewBox="0 0 90 68" fill="none" xmlns="http://www.w3.org/2000/svg">
<path d="M77.4235 39.0377C74.2798 39.0516 71.5573 39.8096 69.2839 40.9324C68.4557 39.2619 67.5995 37.8025 67.4591 36.708C67.2911 35.4307 67.1083 34.673 67.305 33.1574C67.5016 31.6414 68.3854 29.4941 68.3716 29.34C68.3577 29.1857 68.1751 28.4137 66.3647 28.3996C64.5544 28.3857 62.9968 28.7504 62.8141 29.2275C62.6313 29.7047 62.2809 30.7855 62.0704 31.9082C61.7475 33.5502 58.4493 39.4166 56.5827 42.476C55.9653 41.2834 55.4462 40.2305 55.3337 39.3885C55.1653 38.1111 54.9829 37.3535 55.1794 35.8379C55.3759 34.3219 56.2598 32.1746 56.2458 32.0205C56.2317 31.8662 56.0493 31.0941 54.2391 31.0801C52.4286 31.0662 50.8712 31.4309 50.6884 31.9082C50.5059 32.3851 50.3094 33.508 49.9446 34.5891C49.58 35.6691 45.187 45.4369 44.0362 47.9773C43.4466 49.2682 42.9417 50.3068 42.5766 51.0088C42.5208 51.1209 42.4786 51.1912 42.4505 51.2475C42.4925 51.1773 42.5208 51.1068 42.5208 51.1353C42.212 51.7385 42.0294 52.0754 42.0294 52.0754V52.0893C41.7907 52.5383 41.5241 52.9451 41.3979 52.9451C41.3135 52.9451 41.1313 51.7666 41.4401 50.1525C42.0995 46.7562 43.6573 41.4799 43.6432 41.2971C43.6292 41.1988 43.9378 40.2867 42.6186 39.7953C41.3417 39.3322 40.8784 40.1043 40.7663 40.1043C40.6542 40.1043 40.5698 40.3851 40.5698 40.3851C40.5698 40.3851 41.9874 34.4346 37.8471 34.4346C35.2649 34.4346 31.6723 37.2697 29.9042 39.8379C28.7954 40.4414 26.3954 41.7465 23.8694 43.1357C22.9011 43.6691 21.9046 44.2162 20.9643 44.7357C20.8942 44.6652 20.838 44.5951 20.7678 44.525C15.7436 39.1643 6.46707 35.375 6.86023 28.1752C7.00047 25.5508 7.91277 18.6603 24.6975 10.2959C38.451 3.44725 49.4536 5.32792 51.3485 9.50995C54.0708 15.4746 45.4678 26.5756 31.1813 28.1752C25.736 28.7787 22.8733 26.6736 22.1575 25.8879C21.4136 25.06 21.3012 25.0176 21.0206 25.1721C20.5573 25.4246 20.8522 26.1545 21.0206 26.5894C21.4417 27.698 23.1958 29.6629 26.1852 30.6453C28.8093 31.5014 35.195 31.9787 42.9135 28.9893C51.5866 25.649 58.3372 16.3443 56.3583 8.55565C54.3376 0.640614 41.2157 -1.95587 28.7956 2.45077C21.3997 5.07519 13.4003 9.20136 7.64617 14.5762C0.8116 20.976 -0.282932 26.5473 0.165896 28.8771C1.7659 37.143 13.1614 42.5322 17.7225 46.5178C17.4979 46.6441 17.2874 46.7564 17.0911 46.8687C14.8036 48.0053 6.11648 52.5523 3.94109 57.3525C1.48543 62.7977 4.34793 66.6988 6.22859 67.2324C12.0948 68.8602 18.1014 65.9271 21.3294 61.1133C24.5569 56.2998 24.1641 50.0125 22.6766 47.1494C22.6624 47.1074 22.6344 47.0797 22.6206 47.0371C23.2098 46.6865 23.8132 46.3355 24.4169 45.9848C25.5815 45.2971 26.7184 44.6652 27.7147 44.1184C27.1532 45.6342 26.7464 47.4578 26.5358 50.0967C26.2833 53.184 27.5604 57.1838 29.2165 58.7557C29.946 59.4434 30.8302 59.4576 31.3776 59.4576C33.3143 59.4576 34.1843 57.8574 35.1526 55.9488C36.3456 53.6187 37.3981 50.9101 37.3981 50.9101C37.3981 50.9101 36.079 58.2365 39.6856 58.2365C41.0048 58.2365 42.3243 56.5383 42.9134 55.6682V55.682C42.9134 55.682 42.9417 55.6262 43.0118 55.5141C43.152 55.3033 43.2221 55.1769 43.2221 55.1769V55.1346C43.7553 54.2225 44.9204 52.1312 46.6743 48.6791C48.9481 44.216 51.1231 38.6443 51.1231 38.6443C51.1231 38.6443 51.3196 40.0061 51.9936 42.2654C52.3864 43.5986 53.2143 45.0582 53.8739 46.4758C53.3409 47.2055 53.0178 47.6266 53.0178 47.6266C53.0178 47.6266 53.0178 47.6404 53.0315 47.6545C52.6106 48.2162 52.1337 48.8197 51.6425 49.4092C49.846 51.5422 47.7128 53.9844 47.4323 54.6859C47.0952 55.5141 47.1796 56.1311 47.8253 56.6086C48.3022 56.9736 49.1444 57.0295 50.0284 56.9596C51.6425 56.8469 52.7792 56.4543 53.3264 56.2012C54.1964 55.893 55.2071 55.4014 56.1614 54.7139C57.9157 53.423 58.9825 51.5705 58.8839 49.1285C58.8278 47.7812 58.3925 46.4338 57.8592 45.1711C58.0137 44.9463 58.1823 44.7074 58.3366 44.4693C61.1157 40.4129 63.2628 35.9646 63.2628 35.9646C63.2628 35.9646 63.4592 37.3256 64.1327 39.5852C64.4696 40.7221 65.1292 41.9711 65.7325 43.1918C63.1221 45.3111 61.5085 47.7674 60.9469 49.3809C59.9083 52.3703 60.7223 53.7172 62.252 54.0266C62.9397 54.1668 63.9221 53.8438 64.652 53.535C65.5641 53.2262 66.6589 52.735 67.6833 51.9771C69.4376 50.6863 71.1358 48.8756 71.0237 46.4197C70.9813 45.3109 70.6727 44.2023 70.2657 43.1357C72.4688 42.2098 75.3323 41.7041 78.9809 42.1254C86.7979 43.0375 88.3274 47.9213 88.0327 49.9561C87.7383 52.0053 86.0964 53.1281 85.5489 53.4648C85.0012 53.8018 84.8331 53.9281 84.8755 54.1807C84.9454 54.5455 85.1979 54.5316 85.661 54.4471C86.3069 54.335 89.7591 52.791 89.9132 49.0158C90.1382 44.2441 85.5493 38.9957 77.4235 39.0377ZM17.1753 59.3449C14.5932 62.1658 10.9723 63.2324 9.41472 62.3342C7.74461 61.3662 8.40418 57.2119 11.5899 54.2084C13.5266 52.3842 16.0247 50.7002 17.6807 49.6617C18.0596 49.4373 18.6071 49.1004 19.2807 48.6934C19.393 48.6236 19.4491 48.5953 19.4491 48.5953C19.5753 48.5107 19.7157 48.4408 19.8561 48.3564C21.0206 52.6228 19.8979 56.3838 17.1753 59.3449ZM36.0372 46.5178C35.1389 48.7209 33.2442 54.3348 32.0938 54.04C31.1114 53.7873 30.5077 49.507 31.8973 45.2971C32.5989 43.1777 34.0864 40.6518 34.9708 39.6695C36.388 38.0834 37.9458 37.5781 38.3108 38.2098C38.8018 39.0377 36.5983 45.1426 36.0372 46.5178ZM51.6147 53.9562C51.236 54.1525 50.885 54.2787 50.7167 54.1805C50.5905 54.1103 50.8712 53.8436 50.8712 53.8436C50.8712 53.8436 52.8216 51.7525 53.5936 50.7978C54.0426 50.2367 54.5618 49.577 55.1233 48.8475C55.1233 48.9172 55.137 48.9879 55.137 49.0717C55.1235 51.5842 52.7096 53.2826 51.6147 53.9562ZM63.6282 51.2193C63.3475 51.0228 63.3893 50.3633 64.3298 48.3141C64.6948 47.5141 65.537 46.167 66.9962 44.8758C67.1647 45.409 67.2628 45.9141 67.2628 46.3912C67.2485 49.549 64.9893 50.7279 63.6282 51.2193Z" fill="#CF649A"/>
</svg>
